<svg width="18" height="18" viewBox="0 0 18 18" fill="none" xmlns="http://www.w3.org/2000/svg">
<mask id="mask0" mask-type="alpha" maskUnits="userSpaceOnUse" x="0" y="0" width="18" height="18">
<path fill-rule="evenodd" clip-rule="evenodd" d="M0.0512695 17.3309H17.3733V0H0.0512695V17.3309Z" fill="white"/>
</mask>
<g mask="url(#mask0)">
<path fill-rule="evenodd" clip-rule="evenodd" d="M16.4173 0H1.00728C0.479236 0 0.0512695 0.428185 0.0512695 0.956501V16.3744C0.0512695 16.9027 0.479236 17.331 1.00728 17.331H9.30356V10.6195H7.04613V8.00389H9.30356V6.07498C9.30356 3.83652 10.67 2.61762 12.6659 2.61762C13.622 2.61762 14.4436 2.68879 14.6831 2.7206V5.05997L13.2988 5.06062C12.2134 5.06062 12.0032 5.57667 12.0032 6.33394V8.00389H14.5919L14.2549 10.6195H12.0032V17.331H16.4173C16.9453 17.331 17.3733 16.9027 17.3733 16.3744V0.956501C17.3733 0.428185 16.9453 0 16.4173 0Z" fill="#EBCB80"/>
</g>
</svg>
