<svg width="18" height="18" viewBox="0 0 18 18" fill="none" xmlns="http://www.w3.org/2000/svg">
<mask id="mask0" mask-type="alpha" maskUnits="userSpaceOnUse" x="0" y="0" width="18" height="18">
<path fill-rule="evenodd" clip-rule="evenodd" d="M0.0256348 17.3342H17.3546V0H0.0256348V17.3342Z" fill="white"/>
</mask>
<g mask="url(#mask0)">
<path fill-rule="evenodd" clip-rule="evenodd" d="M15.4291 4.81605C15.4291 5.08202 15.2136 5.29766 14.9478 5.29766H12.541C12.2751 5.29766 12.0596 5.08202 12.0596 4.81605V2.40803C12.0596 2.14206 12.2751 1.92642 12.541 1.92642H14.9478C15.2136 1.92642 15.4291 2.14206 15.4291 2.40803V4.81605ZM15.4291 14.9298C15.4291 15.1957 15.2136 15.4114 14.9478 15.4114H2.43243C2.1666 15.4114 1.95107 15.1957 1.95107 14.9298V7.22408H3.59455C3.46471 7.68335 3.39515 8.16803 3.39515 8.6689C3.39515 11.5947 5.76579 13.9666 8.6901 13.9666C11.6144 13.9666 13.9851 11.5947 13.9851 8.6689C13.9851 8.16803 13.9155 7.68335 13.7857 7.22408H15.4291V14.9298ZM8.6901 5.29766C10.551 5.29766 12.0596 6.80701 12.0596 8.6689C12.0596 10.5308 10.551 12.0401 8.6901 12.0401C6.82917 12.0401 5.32059 10.5308 5.32059 8.6689C5.32059 6.80701 6.82917 5.29766 8.6901 5.29766ZM14.9478 0H2.43243C1.10322 0 0.0256348 1.07813 0.0256348 2.40803V14.9298C0.0256348 16.2597 1.10322 17.3378 2.43243 17.3378H14.9478C16.277 17.3378 17.3546 16.2597 17.3546 14.9298V2.40803C17.3546 1.07813 16.277 0 14.9478 0Z" fill="#EBCB80"/>
</g>
</svg>
