<svg width="28" height="28" viewBox="0 0 28 28" fill="none" xmlns="http://www.w3.org/2000/svg">
<path fill-rule="evenodd" clip-rule="evenodd" d="M1.61568 4.02697C1.61568 2.69458 2.70277 1.61079 4.03921 1.61079H23.5353C24.8714 1.61079 25.9588 2.69458 25.9588 4.02697V23.4639C25.9588 24.796 24.8714 25.8801 23.5353 25.8801H4.03921C2.70277 25.8801 1.61568 24.796 1.61568 23.4639V4.02697ZM4.03921 27.4909H23.5353C25.7623 27.4909 27.5745 25.6843 27.5745 23.4639V4.02697C27.5745 1.80636 25.7623 0 23.5353 0H4.03921C1.81185 0 0 1.80636 0 4.02697V23.4639C0 25.6843 1.81185 27.4909 4.03921 27.4909Z" fill="#FFFCF9"/>
<path fill-rule="evenodd" clip-rule="evenodd" d="M13.2127 7.3816C16.4154 7.3816 19.0212 9.97923 19.0212 13.1725C19.0212 16.3655 16.4154 18.9634 13.2127 18.9634C10.0097 18.9634 7.4042 16.3655 7.4042 13.1725C7.4042 9.97923 10.0097 7.3816 13.2127 7.3816ZM13.2127 20.618C17.3306 20.618 20.6808 17.2779 20.6808 13.1725C20.6808 9.0671 17.3306 5.72705 13.2127 5.72705C9.09483 5.72705 5.74463 9.0671 5.74463 13.1725C5.74463 17.2779 9.09483 20.618 13.2127 20.618Z" fill="#FFFCF9"/>
<path fill-rule="evenodd" clip-rule="evenodd" d="M21.2553 8.01839C22.2054 8.01839 22.9787 7.24746 22.9787 6.30021C22.9787 5.35273 22.2054 4.58203 21.2553 4.58203C20.3049 4.58203 19.5319 5.35273 19.5319 6.30021C19.5319 7.24746 20.3049 8.01839 21.2553 8.01839Z" fill="#FFFCF9"/>
</svg>
