<svg width="23" height="23" viewBox="0 0 23 23" fill="none" xmlns="http://www.w3.org/2000/svg">
<path fill-rule="evenodd" clip-rule="evenodd" d="M22.8258 20.7262L16.3997 14.3597C17.6945 12.5406 18.3659 10.2429 18.0302 7.80163C17.4548 3.6849 14.0979 0.429819 9.92576 0.0468676C4.26703 -0.527559 -0.528504 4.25933 0.0469602 9.95573C0.430603 14.0725 3.69157 17.4711 7.81573 18.0456C10.2614 18.3807 12.5633 17.7105 14.3856 16.418L20.7637 22.7846C21.0514 23.0718 21.483 23.0718 21.7707 22.7846L22.7778 21.7793C23.0655 21.4921 23.0655 21.0134 22.8258 20.7262Z" fill="#AD9558"/>
<path fill-rule="evenodd" clip-rule="evenodd" d="M2.87622 9.04622C2.87622 5.64753 5.65763 2.87113 9.06246 2.87113C12.4673 2.87113 15.2487 5.64753 15.2487 9.04622C15.2487 12.4449 12.4673 15.2213 9.06246 15.2213C5.65763 15.2213 2.87622 12.4928 2.87622 9.04622H2.87622Z" fill="#00193E"/>
</svg>
