<svg width="23" height="23" viewBox="0 0 23 23" fill="none" xmlns="http://www.w3.org/2000/svg">
<path fill-rule="evenodd" clip-rule="evenodd" d="M18.633 8.22388C17.2297 8.22388 15.9785 7.5936 15.178 6.61935L8.47557 10.1484C8.63262 10.5735 8.71875 11.032 8.71875 11.5049C8.71875 11.9824 8.63262 12.436 8.47063 12.8658L15.1679 16.3904C15.9631 15.4113 17.2198 14.7761 18.628 14.7761C21.0292 14.7761 22.9899 16.6197 22.9899 18.8882C22.9899 21.1566 21.0344 23 18.628 23C16.2216 23 14.2662 21.1566 14.2662 18.8882C14.2662 18.4106 14.3523 17.9521 14.5143 17.527L7.82205 14.0026C7.02673 14.9864 5.77034 15.6167 4.36184 15.6167C1.96064 15.6167 0 13.7733 0 11.5049C0 9.23639 1.96064 7.39284 4.36704 7.39284C5.77528 7.39284 7.03167 8.02801 7.83218 9.01187L14.5296 5.48254C14.3674 5.05273 14.2763 4.58966 14.2763 4.11209C14.2763 1.84827 16.2318 0 18.6382 0C21.0446 0 23 1.84361 23 4.11209C23 6.38056 21.0394 8.22388 18.633 8.22388Z" fill="#AD9558"/>
<mask id="mask0" mask-type="alpha" maskUnits="userSpaceOnUse" x="0" y="0" width="23" height="23">
<path fill-rule="evenodd" clip-rule="evenodd" d="M18.633 8.22388C17.2297 8.22388 15.9785 7.5936 15.178 6.61935L8.47557 10.1484C8.63262 10.5735 8.71875 11.032 8.71875 11.5049C8.71875 11.9824 8.63262 12.436 8.47063 12.8658L15.1679 16.3904C15.9631 15.4113 17.2198 14.7761 18.628 14.7761C21.0292 14.7761 22.9899 16.6197 22.9899 18.8882C22.9899 21.1566 21.0344 23 18.628 23C16.2216 23 14.2662 21.1566 14.2662 18.8882C14.2662 18.4106 14.3523 17.9521 14.5143 17.527L7.82205 14.0026C7.02673 14.9864 5.77034 15.6167 4.36184 15.6167C1.96064 15.6167 0 13.7733 0 11.5049C0 9.23639 1.96064 7.39284 4.36704 7.39284C5.77528 7.39284 7.03167 8.02801 7.83218 9.01187L14.5296 5.48254C14.3674 5.05273 14.2763 4.58966 14.2763 4.11209C14.2763 1.84827 16.2318 0 18.6382 0C21.0446 0 23 1.84361 23 4.11209C23 6.38056 21.0394 8.22388 18.633 8.22388Z" fill="white"/>
</mask>
<g mask="url(#mask0)">
</g>
</svg>
