<svg width="18" height="18" viewBox="0 0 18 18" fill="none" xmlns="http://www.w3.org/2000/svg">
<path fill-rule="evenodd" clip-rule="evenodd" d="M17.9487 8.7685C17.9487 13.6103 14.004 17.5362 9.13789 17.5362C7.59256 17.5362 6.14071 17.1405 4.87856 16.4452L0 18L1.59021 13.296C0.787749 11.9745 0.326318 10.4248 0.326318 8.7685C0.326318 3.92575 4.27105 0 9.13789 0C14.004 0 17.9487 3.92575 17.9487 8.7685ZM9.13789 1.3965C5.05207 1.3965 1.72956 4.703 1.72956 8.7685C1.72956 10.3808 2.25331 11.875 3.14053 13.0907L2.21542 15.828L5.06179 14.921C6.2312 15.6905 7.63244 16.1397 9.13789 16.1397C13.222 16.1397 16.5455 12.833 16.5455 8.7685C16.5455 4.703 13.222 1.3965 9.13789 1.3965ZM13.5872 10.788C13.5326 10.6982 13.3885 10.6445 13.1734 10.537C12.9572 10.4298 11.8948 9.90925 11.6971 9.838C11.4994 9.7665 11.3543 9.7305 11.2112 9.94525C11.0671 10.1602 10.6531 10.6445 10.5267 10.788C10.401 10.9318 10.2754 10.9493 10.0593 10.8418C9.84288 10.7345 9.14662 10.5068 8.32197 9.7755C7.68031 9.205 7.2468 8.502 7.12016 8.287C6.99477 8.07225 7.10769 7.956 7.21464 7.84875C7.31211 7.752 7.43102 7.59775 7.53896 7.47275C7.64715 7.34675 7.68305 7.25675 7.75509 7.11325C7.82714 6.96975 7.79124 6.84475 7.73665 6.73725C7.68305 6.63 7.25078 5.57225 7.07055 5.1415C6.89156 4.712 6.71132 4.78325 6.58469 4.78325C6.45905 4.78325 6.31496 4.7655 6.17087 4.7655C6.02678 4.7655 5.79295 4.81925 5.59526 5.03425C5.39758 5.249 4.83967 5.7695 4.83967 6.82625C4.83967 7.88375 5.61296 8.90625 5.7209 9.04875C5.8291 9.1925 7.21464 11.4335 9.41061 12.294C11.6066 13.1543 11.6066 12.8673 12.0027 12.831C12.3981 12.796 13.2803 12.3115 13.4605 11.8095C13.6408 11.3075 13.6408 10.877 13.5872 10.788Z" fill="#EBCB80"/>
</svg>
